<?xml version="1.0" encoding="UTF-8" standalone="no"?>
<svg
   xmlns:dc="http://purl.org/dc/elements/1.1/"
   xmlns:cc="http://creativecommons.org/ns#"
   xmlns:rdf="http://www.w3.org/1999/02/22-rdf-syntax-ns#"
   xmlns:svg="http://www.w3.org/2000/svg"
   xmlns="http://www.w3.org/2000/svg"
   xmlns:sodipodi="http://sodipodi.sourceforge.net/DTD/sodipodi-0.dtd"
   xmlns:inkscape="http://www.inkscape.org/namespaces/inkscape"
   viewBox="0 0 124.44 144.00"
   version="1.1"
   id="svg65"
   sodipodi:docname="surveytoolbox_hex.svg"
   inkscape:version="0.92.0 r15299">
  <metadata
     id="metadata69">
    <rdf:RDF>
      <cc:Work
         rdf:about="">
        <dc:format>image/svg+xml</dc:format>
        <dc:type
           rdf:resource="http://purl.org/dc/dcmitype/StillImage" />
      </cc:Work>
    </rdf:RDF>
  </metadata>
  <sodipodi:namedview
     pagecolor="#ffffff"
     bordercolor="#666666"
     borderopacity="1"
     objecttolerance="10"
     gridtolerance="10"
     guidetolerance="10"
     inkscape:pageopacity="0"
     inkscape:pageshadow="2"
     inkscape:window-width="1440"
     inkscape:window-height="878"
     id="namedview67"
     showgrid="false"
     inkscape:zoom="3.2777778"
     inkscape:cx="51.009603"
     inkscape:cy="40.455271"
     inkscape:window-x="1672"
     inkscape:window-y="142"
     inkscape:window-maximized="1"
     inkscape:current-layer="svg65" />
  <defs
     id="defs4">
    <style
       type="text/css"
       id="style2"><![CDATA[
    line, polyline, path, rect, circle {
      fill: none;
      stroke: #000000;
      stroke-linecap: round;
      stroke-linejoin: round;
      stroke-miterlimit: 10.00;
    }
  ]]></style>
  </defs>
  <rect
     width="100%"
     height="100%"
     style="stroke: none; fill: none;"
     id="rect6" />
  <defs
     id="defs11">
    <clipPath
       id="cpMC44MjQ4OTd8MTIzLjYxNnwxNDR8MA==">
      <rect
         x="0.82"
         y="0.00"
         width="122.79"
         height="144.00"
         id="rect8" />
    </clipPath>
  </defs>
  <rect
     x="0.82"
     y="0.00"
     width="122.79"
     height="144.00"
     style="stroke-width: 1.07; stroke: none;"
     clip-path="url(#cpMC44MjQ4OTd8MTIzLjYxNnwxNDR8MA==)"
     id="rect13" />
  <defs
     id="defs18">
    <clipPath
       id="cpMHwxMjQuNDQxfDE0NHww">
      <rect
         x="0.00"
         y="0.00"
         width="124.44"
         height="144.00"
         id="rect15" />
    </clipPath>
  </defs>
  <defs
     id="defs23">
    <clipPath
       id="cpMC42ODQ2MjN8MTIzLjYxNnwxNDR8MA==">
      <rect
         x="0.68"
         y="0.00"
         width="122.93"
         height="144.00"
         id="rect20" />
    </clipPath>
  </defs>
  <rect
     x="0.68"
     y="-0.00"
     width="122.93"
     height="144.14"
     style="stroke-width: 1.07; stroke: none;"
     clip-path="url(#cpMC42ODQ2MjN8MTIzLjYxNnwxNDR8MA==)"
     id="rect25" />
  <polyline
     points="1.89,37.28 1.89,106.86 62.15,141.65 122.41,106.86 122.41,37.28 62.15,2.49 1.89,37.28 "
     style="stroke-width:2.56;stroke:#ff9500;fill:#e9ef36;fill-opacity:1;stroke-opacity:1"
     clip-path="url(#cpMC42ODQ2MjN8MTIzLjYxNnwxNDR8MA==)"
     id="polyline27" />
  <path
     d="M 16.90 48.06 L 16.90 48.06 L 16.98 48.09 L 17.06 48.12 L 17.14 48.15 L 17.22 48.17 L 17.31 48.20 L 17.39 48.22 L 17.48 48.25 L 17.56 48.27 L 17.65 48.29 L 17.74 48.31 L 17.74 48.31 L 17.84 48.33 L 17.93 48.34 L 18.02 48.36 L 18.12 48.37 L 18.21 48.38 L 18.30 48.38 L 18.39 48.39 L 18.48 48.39 L 18.58 48.40 L 18.67 48.40 L 18.67 48.40 L 18.73 48.40 L 18.80 48.40 L 18.86 48.39 L 18.92 48.39 L 18.99 48.38 L 19.05 48.37 L 19.11 48.36 L 19.17 48.35 L 19.23 48.34 L 19.29 48.33 L 19.29 48.33 L 19.35 48.31 L 19.41 48.30 L 19.46 48.28 L 19.52 48.26 L 19.57 48.24 L 19.62 48.22 L 19.67 48.19 L 19.72 48.17 L 19.76 48.14 L 19.81 48.11 L 19.81 48.11 L 19.85 48.08 L 19.89 48.05 L 19.93 48.02 L 19.97 47.99 L 20.01 47.96 L 20.04 47.92 L 20.08 47.89 L 20.11 47.85 L 20.13 47.81 L 20.16 47.77 L 20.16 47.77 L 20.19 47.73 L 20.21 47.69 L 20.23 47.64 L 20.25 47.59 L 20.27 47.55 L 20.28 47.50 L 20.29 47.45 L 20.30 47.40 L 20.30 47.35 L 20.30 47.30 L 20.30 47.30 L 20.30 47.25 L 20.30 47.19 L 20.29 47.14 L 20.29 47.09 L 20.27 47.04 L 20.26 47.00 L 20.25 46.95 L 20.23 46.91 L 20.21 46.87 L 20.19 46.83 L 20.19 46.83 L 20.17 46.80 L 20.15 46.76 L 20.12 46.73 L 20.10 46.69 L 20.07 46.66 L 20.04 46.63 L 20.01 46.60 L 19.98 46.57 L 19.94 46.55 L 19.91 46.52 L 19.91 46.52 L 19.87 46.50 L 19.83 46.47 L 19.80 46.45 L 19.76 46.42 L 19.72 46.40 L 19.67 46.38 L 19.63 46.36 L 19.59 46.34 L 19.54 46.32 L 19.49 46.31 L 19.49 46.31 L 19.45 46.29 L 19.40 46.27 L 19.35 46.25 L 19.30 46.23 L 19.25 46.21 L 19.20 46.19 L 19.15 46.17 L 19.10 46.16 L 19.05 46.14 L 18.99 46.12 L 18.50 45.94 L 18.50 45.94 L 18.32 45.87 L 18.15 45.80 L 18.00 45.72 L 17.85 45.65 L 17.71 45.57 L 17.58 45.50 L 17.47 45.42 L 17.36 45.34 L 17.26 45.25 L 17.17 45.17 L 17.17 45.17 L 17.10 45.08 L 17.03 44.99 L 16.96 44.89 L 16.91 44.78 L 16.86 44.67 L 16.83 44.55 L 16.80 44.42 L 16.78 44.29 L 16.77 44.16 L 16.76 44.02 L 16.76 44.02 L 16.77 43.83 L 16.79 43.65 L 16.82 43.47 L 16.87 43.31 L 16.93 43.15 L 17.01 43.00 L 17.10 42.86 L 17.20 42.72 L 17.31 42.60 L 17.44 42.48 L 17.44 42.48 L 17.59 42.37 L 17.75 42.28 L 17.92 42.19 L 18.10 42.12 L 18.30 42.05 L 18.51 42.00 L 18.73 41.96 L 18.97 41.93 L 19.22 41.92 L 19.48 41.91 L 19.48 41.91 L 19.59 41.91 L 19.70 41.92 L 19.81 41.92 L 19.92 41.93 L 20.03 41.94 L 20.13 41.95 L 20.24 41.97 L 20.35 41.98 L 20.45 42.00 L 20.56 42.02 L 20.56 42.02 L 20.67 42.05 L 20.77 42.07 L 20.87 42.09 L 20.97 42.11 L 21.06 42.14 L 21.16 42.16 L 21.25 42.19 L 21.33 42.21 L 21.42 42.24 L 21.50 42.27 L 21.50 42.27 L 21.49 42.32 L 21.48 42.38 L 21.48 42.44 L 21.47 42.49 L 21.46 42.55 L 21.44 42.61 L 21.43 42.66 L 21.42 42.72 L 21.40 42.78 L 21.38 42.84 L 21.38 42.84 L 21.37 42.89 L 21.35 42.95 L 21.34 43.00 L 21.32 43.06 L 21.30 43.11 L 21.28 43.16 L 21.26 43.21 L 21.24 43.26 L 21.22 43.31 L 21.20 43.36 L 21.20 43.36 L 21.14 43.34 L 21.07 43.32 L 21.00 43.30 L 20.93 43.27 L 20.85 43.25 L 20.78 43.23 L 20.70 43.21 L 20.62 43.19 L 20.53 43.17 L 20.45 43.15 L 20.45 43.15 L 20.36 43.13 L 20.27 43.11 L 20.18 43.09 L 20.09 43.08 L 20.00 43.06 L 19.91 43.05 L 19.81 43.05 L 19.72 43.04 L 19.62 43.04 L 19.52 43.03 L 19.52 43.03 L 19.42 43.04 L 19.31 43.04 L 19.22 43.05 L 19.12 43.06 L 19.02 43.08 L 18.93 43.10 L 18.84 43.13 L 18.75 43.15 L 18.67 43.18 L 18.58 43.22 L 18.58 43.22 L 18.51 43.26 L 18.44 43.31 L 18.38 43.36 L 18.33 43.41 L 18.28 43.48 L 18.25 43.54 L 18.22 43.62 L 18.20 43.70 L 18.19 43.78 L 18.18 43.87 L 18.18 43.87 L 18.18 43.92 L 18.19 43.97 L 18.19 44.01 L 18.20 44.06 L 18.21 44.10 L 18.22 44.14 L 18.23 44.18 L 18.25 44.22 L 18.26 44.25 L 18.28 44.29 L 18.28 44.29 L 18.30 44.32 L 18.33 44.35 L 18.35 44.39 L 18.37 44.42 L 18.40 44.45 L 18.43 44.48 L 18.46 44.50 L 18.49 44.53 L 18.52 44.56 L 18.55 44.59 L 18.55 44.59 L 18.59 44.61 L 18.62 44.63 L 18.66 44.65 L 18.70 44.67 L 18.73 44.69 L 18.77 44.71 L 18.81 44.73 L 18.85 44.75 L 18.90 44.77 L 18.94 44.78 L 18.94 44.78 L 18.98 44.80 L 19.03 44.82 L 19.08 44.84 L 19.12 44.85 L 19.17 44.87 L 19.22 44.89 L 19.27 44.90 L 19.32 44.92 L 19.37 44.94 L 19.42 44.96 L 20.05 45.17 L 20.05 45.17 L 20.12 45.19 L 20.18 45.22 L 20.25 45.24 L 20.31 45.27 L 20.38 45.29 L 20.44 45.32 L 20.50 45.35 L 20.57 45.38 L 20.63 45.41 L 20.69 45.44 L 20.69 45.44 L 20.75 45.47 L 20.81 45.51 L 20.87 45.54 L 20.92 45.58 L 20.98 45.62 L 21.03 45.66 L 21.08 45.70 L 21.12 45.74 L 21.17 45.79 L 21.21 45.84 L 21.21 45.84 L 21.26 45.88 L 21.30 45.93 L 21.34 45.98 L 21.38 46.04 L 21.42 46.09 L 21.45 46.15 L 21.48 46.21 L 21.51 46.27 L 21.54 46.34 L 21.57 46.41 L 21.57 46.41 L 21.60 46.47 L 21.62 46.54 L 21.64 46.62 L 21.66 46.69 L 21.68 46.77 L 21.69 46.85 L 21.70 46.93 L 21.71 47.02 L 21.71 47.11 L 21.71 47.20 L 21.71 47.20 L 21.71 47.31 L 21.70 47.41 L 21.69 47.51 L 21.68 47.61 L 21.66 47.71 L 21.64 47.80 L 21.61 47.90 L 21.58 47.99 L 21.54 48.08 L 21.50 48.17 L 21.50 48.17 L 21.45 48.25 L 21.41 48.34 L 21.35 48.42 L 21.30 48.49 L 21.24 48.57 L 21.18 48.64 L 21.11 48.71 L 21.04 48.78 L 20.96 48.85 L 20.89 48.91 L 20.89 48.91 L 20.81 48.97 L 20.73 49.02 L 20.64 49.08 L 20.55 49.13 L 20.46 49.18 L 20.36 49.22 L 20.27 49.27 L 20.16 49.31 L 20.06 49.34 L 19.95 49.38 L 19.95 49.38 L 19.84 49.41 L 19.72 49.44 L 19.60 49.47 L 19.49 49.49 L 19.36 49.51 L 19.24 49.52 L 19.12 49.54 L 18.99 49.54 L 18.86 49.55 L 18.72 49.55 L 18.72 49.55 L 18.59 49.55 L 18.46 49.55 L 18.33 49.54 L 18.21 49.53 L 18.08 49.53 L 17.97 49.51 L 17.85 49.50 L 17.74 49.49 L 17.63 49.47 L 17.53 49.45 L 17.53 49.45 L 17.43 49.43 L 17.33 49.41 L 17.23 49.39 L 17.13 49.37 L 17.03 49.35 L 16.94 49.32 L 16.85 49.30 L 16.76 49.27 L 16.67 49.24 L 16.58 49.21 L 16.58 49.21 L 16.58 49.15 L 16.59 49.10 L 16.60 49.04 L 16.61 48.98 L 16.62 48.92 L 16.63 48.87 L 16.64 48.81 L 16.66 48.75 L 16.67 48.70 L 16.69 48.64 L 16.69 48.64 L 16.71 48.58 L 16.73 48.52 L 16.75 48.46 L 16.77 48.40 L 16.79 48.34 L 16.81 48.29 L 16.84 48.23 L 16.86 48.17 L 16.88 48.11 L 16.90 48.06 Z"
     style="fill-rule:evenodd;fill:#ff7100;stroke-width:0.75;stroke:none;stroke-opacity:1;fill-opacity:1"
     clip-path="url(#cpMC42ODQ2MjN8MTIzLjYxNnwxNDR8MA==)"
     id="path33" />
  <path
     d="M 23.42 42.08 L 23.42 42.08 L 23.45 42.08 L 23.48 42.07 L 23.52 42.07 L 23.55 42.06 L 23.59 42.06 L 23.62 42.05 L 23.66 42.05 L 23.70 42.05 L 23.74 42.04 L 23.77 42.04 L 23.77 42.04 L 23.81 42.04 L 23.85 42.03 L 23.89 42.03 L 23.92 42.03 L 23.96 42.03 L 23.99 42.03 L 24.03 42.03 L 24.06 42.03 L 24.09 42.02 L 24.12 42.02 L 24.12 42.02 L 24.15 42.02 L 24.18 42.03 L 24.21 42.03 L 24.25 42.03 L 24.28 42.03 L 24.32 42.03 L 24.36 42.03 L 24.39 42.03 L 24.43 42.04 L 24.47 42.04 L 24.47 42.04 L 24.51 42.04 L 24.55 42.05 L 24.59 42.05 L 24.62 42.05 L 24.66 42.06 L 24.70 42.06 L 24.73 42.07 L 24.76 42.07 L 24.80 42.08 L 24.83 42.08 L 24.83 46.08 L 24.83 46.08 L 24.83 46.21 L 24.83 46.34 L 24.84 46.47 L 24.85 46.59 L 24.86 46.71 L 24.87 46.82 L 24.89 46.92 L 24.91 47.03 L 24.93 47.12 L 24.96 47.22 L 24.96 47.22 L 24.98 47.30 L 25.01 47.39 L 25.04 47.47 L 25.08 47.54 L 25.12 47.61 L 25.16 47.68 L 25.20 47.74 L 25.24 47.80 L 25.29 47.86 L 25.34 47.91 L 25.34 47.91 L 25.39 47.96 L 25.45 48.01 L 25.50 48.05 L 25.56 48.09 L 25.62 48.13 L 25.69 48.17 L 25.75 48.20 L 25.82 48.22 L 25.89 48.25 L 25.97 48.27 L 25.97 48.27 L 26.04 48.29 L 26.12 48.31 L 26.20 48.32 L 26.28 48.33 L 26.36 48.34 L 26.45 48.35 L 26.54 48.36 L 26.63 48.37 L 26.72 48.37 L 26.82 48.37 L 26.82 48.37 L 26.96 48.37 L 27.10 48.36 L 27.24 48.36 L 27.37 48.34 L 27.49 48.33 L 27.61 48.31 L 27.73 48.29 L 27.84 48.27 L 27.95 48.24 L 28.06 48.21 L 28.06 42.08 L 28.06 42.08 L 28.09 42.08 L 28.12 42.07 L 28.15 42.07 L 28.19 42.06 L 28.22 42.06 L 28.25 42.05 L 28.29 42.05 L 28.33 42.05 L 28.36 42.04 L 28.40 42.04 L 28.40 42.04 L 28.44 42.04 L 28.48 42.03 L 28.51 42.03 L 28.55 42.03 L 28.59 42.03 L 28.62 42.03 L 28.66 42.03 L 28.69 42.03 L 28.72 42.02 L 28.75 42.02 L 28.75 42.02 L 28.79 42.02 L 28.82 42.03 L 28.85 42.03 L 28.88 42.03 L 28.92 42.03 L 28.95 42.03 L 28.99 42.03 L 29.02 42.03 L 29.06 42.04 L 29.10 42.04 L 29.10 42.04 L 29.13 42.04 L 29.17 42.05 L 29.21 42.05 L 29.25 42.05 L 29.28 42.06 L 29.32 42.06 L 29.35 42.07 L 29.39 42.07 L 29.42 42.08 L 29.45 42.08 L 29.45 49.15 L 29.45 49.15 L 29.35 49.18 L 29.24 49.21 L 29.13 49.24 L 29.02 49.26 L 28.90 49.29 L 28.78 49.32 L 28.66 49.34 L 28.53 49.37 L 28.39 49.40 L 28.26 49.42 L 28.26 49.42 L 28.12 49.45 L 27.98 49.47 L 27.84 49.49 L 27.70 49.50 L 27.56 49.52 L 27.42 49.53 L 27.27 49.54 L 27.13 49.55 L 26.98 49.55 L 26.83 49.55 L 26.83 49.55 L 26.69 49.55 L 26.56 49.55 L 26.42 49.54 L 26.29 49.53 L 26.15 49.52 L 26.02 49.50 L 25.89 49.49 L 25.76 49.47 L 25.64 49.45 L 25.51 49.42 L 25.51 49.42 L 25.39 49.40 L 25.27 49.37 L 25.16 49.33 L 25.04 49.29 L 24.93 49.24 L 24.83 49.19 L 24.72 49.14 L 24.62 49.08 L 24.52 49.01 L 24.43 48.94 L 24.43 48.94 L 24.34 48.86 L 24.25 48.78 L 24.17 48.69 L 24.09 48.60 L 24.01 48.49 L 23.94 48.39 L 23.87 48.27 L 23.81 48.16 L 23.75 48.03 L 23.69 47.90 L 23.69 47.90 L 23.64 47.76 L 23.59 47.62 L 23.55 47.46 L 23.52 47.30 L 23.49 47.12 L 23.46 46.94 L 23.44 46.76 L 23.43 46.56 L 23.42 46.35 L 23.42 46.14 L 23.42 42.08 Z"
     style="fill-rule:evenodd;fill:#ff7100;stroke-width:0.75;stroke:none;stroke-opacity:1;fill-opacity:1"
     clip-path="url(#cpMC42ODQ2MjN8MTIzLjYxNnwxNDR8MA==)"
     id="path35" />
  <path
     d="M 31.67 42.08 L 31.67 42.08 L 31.70 42.08 L 31.73 42.07 L 31.76 42.07 L 31.79 42.06 L 31.82 42.06 L 31.85 42.05 L 31.88 42.05 L 31.91 42.05 L 31.94 42.04 L 31.97 42.04 L 31.97 42.04 L 32.00 42.04 L 32.03 42.03 L 32.06 42.03 L 32.09 42.03 L 32.11 42.03 L 32.14 42.03 L 32.18 42.03 L 32.21 42.03 L 32.24 42.02 L 32.27 42.02 L 32.27 42.02 L 32.30 42.02 L 32.33 42.03 L 32.36 42.03 L 32.39 42.03 L 32.42 42.03 L 32.46 42.03 L 32.49 42.03 L 32.52 42.03 L 32.55 42.04 L 32.58 42.04 L 32.58 42.04 L 32.61 42.04 L 32.64 42.05 L 32.67 42.05 L 32.70 42.05 L 32.73 42.06 L 32.76 42.06 L 32.79 42.07 L 32.81 42.07 L 32.84 42.08 L 32.87 42.08 L 32.87 42.08 L 32.87 42.13 L 32.88 42.17 L 32.89 42.22 L 32.90 42.28 L 32.91 42.33 L 32.92 42.39 L 32.93 42.45 L 32.93 42.51 L 32.94 42.58 L 32.95 42.65 L 32.95 42.65 L 32.96 42.72 L 32.97 42.78 L 32.97 42.85 L 32.98 42.91 L 32.98 42.97 L 32.99 43.02 L 32.99 43.08 L 32.99 43.13 L 32.99 43.18 L 32.99 43.23 L 32.99 43.23 L 33.05 43.14 L 33.12 43.05 L 33.19 42.96 L 33.26 42.87 L 33.34 42.78 L 33.42 42.70 L 33.50 42.62 L 33.59 42.54 L 33.68 42.47 L 33.78 42.39 L 33.78 42.39 L 33.88 42.33 L 33.99 42.27 L 34.10 42.21 L 34.22 42.17 L 34.34 42.13 L 34.47 42.10 L 34.61 42.07 L 34.75 42.05 L 34.89 42.04 L 35.04 42.04 L 35.04 42.04 L 35.06 42.04 L 35.09 42.04 L 35.11 42.04 L 35.13 42.04 L 35.16 42.04 L 35.18 42.04 L 35.20 42.05 L 35.22 42.05 L 35.25 42.05 L 35.27 42.05 L 35.27 42.05 L 35.29 42.05 L 35.32 42.05 L 35.34 42.05 L 35.37 42.06 L 35.39 42.06 L 35.41 42.06 L 35.43 42.06 L 35.45 42.06 L 35.47 42.06 L 35.48 42.07 L 35.48 42.07 L 35.49 42.09 L 35.49 42.12 L 35.50 42.15 L 35.50 42.17 L 35.51 42.20 L 35.51 42.23 L 35.52 42.25 L 35.52 42.28 L 35.52 42.31 L 35.53 42.34 L 35.53 42.34 L 35.53 42.37 L 35.53 42.40 L 35.53 42.42 L 35.53 42.45 L 35.54 42.48 L 35.54 42.51 L 35.54 42.54 L 35.54 42.57 L 35.54 42.61 L 35.54 42.64 L 35.54 42.64 L 35.54 42.67 L 35.54 42.71 L 35.54 42.74 L 35.54 42.78 L 35.53 42.81 L 35.53 42.85 L 35.53 42.88 L 35.52 42.92 L 35.52 42.96 L 35.51 42.99 L 35.51 42.99 L 35.51 43.03 L 35.51 43.07 L 35.50 43.10 L 35.50 43.14 L 35.49 43.17 L 35.49 43.21 L 35.48 43.24 L 35.48 43.28 L 35.47 43.31 L 35.47 43.35 L 35.47 43.35 L 35.45 43.34 L 35.42 43.34 L 35.40 43.33 L 35.38 43.33 L 35.35 43.33 L 35.33 43.32 L 35.30 43.32 L 35.28 43.32 L 35.25 43.32 L 35.23 43.32 L 35.23 43.32 L 35.20 43.32 L 35.18 43.32 L 35.16 43.32 L 35.14 43.32 L 35.12 43.32 L 35.11 43.32 L 35.09 43.32 L 35.07 43.32 L 35.06 43.32 L 35.04 43.32 L 35.04 43.32 L 34.97 43.32 L 34.89 43.32 L 34.81 43.33 L 34.74 43.34 L 34.66 43.35 L 34.59 43.36 L 34.52 43.38 L 34.45 43.39 L 34.37 43.41 L 34.30 43.43 L 34.30 43.43 L 34.23 43.45 L 34.17 43.48 L 34.10 43.51 L 34.04 43.54 L 33.97 43.58 L 33.91 43.61 L 33.85 43.66 L 33.79 43.70 L 33.73 43.75 L 33.68 43.80 L 33.68 43.80 L 33.62 43.86 L 33.57 43.92 L 33.52 43.98 L 33.48 44.05 L 33.43 44.12 L 33.39 44.20 L 33.35 44.28 L 33.31 44.36 L 33.27 44.45 L 33.24 44.54 L 33.24 44.54 L 33.21 44.64 L 33.18 44.74 L 33.16 44.85 L 33.14 44.96 L 33.12 45.08 L 33.10 45.20 L 33.09 45.33 L 33.08 45.47 L 33.08 45.61 L 33.08 45.75 L 33.08 49.38 L 33.08 49.38 L 33.05 49.39 L 33.01 49.39 L 32.98 49.40 L 32.95 49.40 L 32.91 49.40 L 32.88 49.41 L 32.84 49.41 L 32.80 49.42 L 32.76 49.42 L 32.72 49.42 L 32.72 49.42 L 32.69 49.43 L 32.65 49.43 L 32.61 49.43 L 32.58 49.43 L 32.55 49.43 L 32.51 49.43 L 32.48 49.44 L 32.45 49.44 L 32.41 49.44 L 32.38 49.44 L 32.38 49.44 L 32.35 49.44 L 32.32 49.44 L 32.28 49.44 L 32.25 49.43 L 32.21 49.43 L 32.18 49.43 L 32.14 49.43 L 32.10 49.43 L 32.07 49.43 L 32.03 49.42 L 32.03 49.42 L 31.99 49.42 L 31.95 49.42 L 31.92 49.41 L 31.88 49.41 L 31.84 49.40 L 31.81 49.40 L 31.77 49.40 L 31.74 49.39 L 31.70 49.39 L 31.67 49.38 L 31.67 42.08 Z"
     style="fill-rule:evenodd;fill:#ff7100;stroke-width:0.75;stroke:none;stroke-opacity:1;fill-opacity:1"
     clip-path="url(#cpMC42ODQ2MjN8MTIzLjYxNnwxNDR8MA==)"
     id="path37" />
  <path
     d="M 36.07 42.08 L 36.07 42.08 L 36.11 42.08 L 36.15 42.07 L 36.19 42.07 L 36.23 42.06 L 36.27 42.06 L 36.31 42.05 L 36.35 42.05 L 36.39 42.05 L 36.44 42.04 L 36.48 42.04 L 36.48 42.04 L 36.52 42.04 L 36.56 42.03 L 36.60 42.03 L 36.64 42.03 L 36.68 42.03 L 36.72 42.03 L 36.76 42.03 L 36.79 42.03 L 36.83 42.02 L 36.86 42.02 L 36.86 42.02 L 36.90 42.02 L 36.94 42.03 L 36.98 42.03 L 37.02 42.03 L 37.06 42.03 L 37.10 42.03 L 37.14 42.03 L 37.18 42.03 L 37.22 42.04 L 37.26 42.04 L 37.26 42.04 L 37.31 42.04 L 37.35 42.05 L 37.39 42.05 L 37.43 42.05 L 37.47 42.06 L 37.51 42.06 L 37.55 42.07 L 37.58 42.07 L 37.61 42.08 L 37.65 42.08 L 39.64 48.10 L 41.64 42.08 L 41.64 42.08 L 41.67 42.08 L 41.71 42.07 L 41.74 42.07 L 41.78 42.06 L 41.81 42.06 L 41.85 42.05 L 41.88 42.05 L 41.92 42.05 L 41.96 42.04 L 42.00 42.04 L 42.00 42.04 L 42.04 42.04 L 42.08 42.03 L 42.12 42.03 L 42.16 42.03 L 42.19 42.03 L 42.23 42.03 L 42.27 42.03 L 42.31 42.03 L 42.35 42.02 L 42.38 42.02 L 42.38 42.02 L 42.41 42.02 L 42.45 42.03 L 42.48 42.03 L 42.51 42.03 L 42.55 42.03 L 42.59 42.03 L 42.62 42.03 L 42.66 42.03 L 42.70 42.04 L 42.74 42.04 L 42.74 42.04 L 42.78 42.04 L 42.82 42.05 L 42.86 42.05 L 42.90 42.05 L 42.94 42.06 L 42.98 42.06 L 43.02 42.07 L 43.06 42.07 L 43.10 42.08 L 43.14 42.08 L 40.29 49.38 L 40.29 49.38 L 40.25 49.39 L 40.22 49.39 L 40.18 49.40 L 40.14 49.40 L 40.11 49.40 L 40.07 49.41 L 40.03 49.41 L 40.00 49.42 L 39.96 49.42 L 39.92 49.42 L 39.92 49.42 L 39.88 49.43 L 39.85 49.43 L 39.81 49.43 L 39.78 49.43 L 39.74 49.43 L 39.71 49.43 L 39.68 49.44 L 39.64 49.44 L 39.61 49.44 L 39.58 49.44 L 39.58 49.44 L 39.55 49.44 L 39.52 49.44 L 39.48 49.44 L 39.45 49.43 L 39.42 49.43 L 39.38 49.43 L 39.35 49.43 L 39.31 49.43 L 39.28 49.43 L 39.24 49.42 L 39.24 49.42 L 39.20 49.42 L 39.17 49.42 L 39.14 49.41 L 39.10 49.41 L 39.07 49.40 L 39.03 49.40 L 39.00 49.40 L 38.97 49.39 L 38.93 49.39 L 38.90 49.38 L 36.07 42.08 Z"
     style="fill-rule:evenodd;fill:#ff7100;stroke-width:0.75;stroke:none;stroke-opacity:1;fill-opacity:1"
     clip-path="url(#cpMC42ODQ2MjN8MTIzLjYxNnwxNDR8MA==)"
     id="path39" />
  <path
     d="M 45.57 46.08 L 45.57 46.08 L 45.58 46.31 L 45.60 46.53 L 45.64 46.74 L 45.68 46.93 L 45.74 47.11 L 45.80 47.28 L 45.88 47.44 L 45.97 47.58 L 46.07 47.71 L 46.18 47.83 L 46.18 47.83 L 46.31 47.93 L 46.44 48.03 L 46.59 48.11 L 46.75 48.18 L 46.92 48.25 L 47.10 48.30 L 47.29 48.33 L 47.49 48.36 L 47.71 48.38 L 47.93 48.38 L 47.93 48.38 L 48.13 48.38 L 48.33 48.37 L 48.53 48.35 L 48.72 48.33 L 48.92 48.30 L 49.11 48.26 L 49.30 48.21 L 49.48 48.16 L 49.67 48.10 L 49.85 48.03 L 49.85 48.03 L 49.87 48.07 L 49.90 48.12 L 49.92 48.17 L 49.94 48.21 L 49.95 48.27 L 49.97 48.32 L 49.99 48.38 L 50.01 48.43 L 50.02 48.49 L 50.04 48.55 L 50.04 48.55 L 50.05 48.61 L 50.06 48.67 L 50.07 48.73 L 50.08 48.79 L 50.09 48.85 L 50.10 48.91 L 50.11 48.97 L 50.11 49.03 L 50.12 49.09 L 50.12 49.15 L 50.12 49.15 L 50.03 49.19 L 49.93 49.23 L 49.83 49.26 L 49.73 49.30 L 49.63 49.33 L 49.52 49.36 L 49.42 49.38 L 49.31 49.41 L 49.20 49.43 L 49.08 49.45 L 49.08 49.45 L 48.97 49.47 L 48.86 49.49 L 48.74 49.50 L 48.62 49.51 L 48.50 49.53 L 48.37 49.53 L 48.24 49.54 L 48.11 49.55 L 47.98 49.55 L 47.85 49.55 L 47.85 49.55 L 47.65 49.55 L 47.46 49.54 L 47.27 49.53 L 47.09 49.51 L 46.92 49.48 L 46.75 49.45 L 46.59 49.42 L 46.43 49.38 L 46.28 49.33 L 46.14 49.28 L 46.14 49.28 L 46.00 49.22 L 45.86 49.16 L 45.73 49.09 L 45.61 49.02 L 45.49 48.94 L 45.37 48.86 L 45.26 48.78 L 45.16 48.69 L 45.05 48.60 L 44.96 48.50 L 44.96 48.50 L 44.87 48.39 L 44.79 48.29 L 44.71 48.18 L 44.63 48.06 L 44.56 47.94 L 44.50 47.82 L 44.44 47.70 L 44.38 47.57 L 44.33 47.44 L 44.29 47.30 L 44.29 47.30 L 44.25 47.16 L 44.21 47.02 L 44.18 46.87 L 44.15 46.72 L 44.13 46.57 L 44.11 46.42 L 44.09 46.26 L 44.08 46.11 L 44.08 45.94 L 44.08 45.78 L 44.08 45.78 L 44.08 45.62 L 44.08 45.46 L 44.09 45.30 L 44.11 45.15 L 44.13 45.00 L 44.15 44.85 L 44.17 44.70 L 44.20 44.56 L 44.24 44.41 L 44.27 44.27 L 44.27 44.27 L 44.32 44.13 L 44.37 44.00 L 44.42 43.86 L 44.48 43.74 L 44.54 43.61 L 44.61 43.49 L 44.68 43.37 L 44.75 43.26 L 44.83 43.15 L 44.92 43.05 L 44.92 43.05 L 45.00 42.95 L 45.09 42.85 L 45.19 42.75 L 45.29 42.66 L 45.40 42.58 L 45.50 42.50 L 45.62 42.42 L 45.73 42.35 L 45.86 42.29 L 45.98 42.22 L 45.98 42.22 L 46.12 42.16 L 46.25 42.11 L 46.40 42.06 L 46.54 42.02 L 46.69 41.99 L 46.85 41.96 L 47.01 41.94 L 47.17 41.92 L 47.34 41.91 L 47.52 41.91 L 47.52 41.91 L 47.67 41.91 L 47.81 41.92 L 47.95 41.93 L 48.09 41.95 L 48.23 41.98 L 48.36 42.00 L 48.48 42.04 L 48.61 42.07 L 48.73 42.12 L 48.84 42.17 L 48.84 42.17 L 48.95 42.22 L 49.06 42.28 L 49.17 42.34 L 49.27 42.40 L 49.36 42.47 L 49.46 42.55 L 49.55 42.62 L 49.63 42.70 L 49.72 42.79 L 49.79 42.88 L 49.79 42.88 L 49.87 42.97 L 49.94 43.06 L 50.01 43.16 L 50.07 43.26 L 50.13 43.37 L 50.19 43.47 L 50.24 43.59 L 50.29 43.70 L 50.34 43.82 L 50.38 43.95 L 50.38 43.95 L 50.42 44.07 L 50.45 44.19 L 50.48 44.32 L 50.51 44.45 L 50.53 44.59 L 50.55 44.72 L 50.56 44.86 L 50.57 45.00 L 50.58 45.14 L 50.58 45.28 L 50.58 45.28 L 50.58 45.32 L 50.58 45.36 L 50.58 45.40 L 50.57 45.45 L 50.57 45.49 L 50.57 45.53 L 50.57 45.58 L 50.57 45.62 L 50.57 45.66 L 50.56 45.71 L 50.56 45.71 L 50.56 45.75 L 50.56 45.79 L 50.55 45.83 L 50.55 45.87 L 50.55 45.91 L 50.55 45.95 L 50.54 45.98 L 50.54 46.01 L 50.54 46.05 L 50.53 46.08 L 45.57 46.08 ZM 49.18 45.03 L 49.18 45.03 L 49.18 44.95 L 49.18 44.87 L 49.17 44.79 L 49.16 44.71 L 49.15 44.64 L 49.14 44.56 L 49.13 44.49 L 49.11 44.42 L 49.09 44.34 L 49.07 44.27 L 49.07 44.27 L 49.05 44.20 L 49.02 44.13 L 49.00 44.06 L 48.97 43.99 L 48.94 43.93 L 48.91 43.86 L 48.87 43.80 L 48.84 43.74 L 48.80 43.69 L 48.76 43.63 L 48.76 43.63 L 48.72 43.58 L 48.67 43.53 L 48.63 43.48 L 48.58 43.43 L 48.53 43.39 L 48.47 43.35 L 48.41 43.31 L 48.36 43.27 L 48.29 43.24 L 48.23 43.21 L 48.23 43.21 L 48.17 43.17 L 48.10 43.14 L 48.03 43.12 L 47.96 43.10 L 47.88 43.08 L 47.81 43.06 L 47.73 43.05 L 47.65 43.04 L 47.56 43.04 L 47.48 43.03 L 47.48 43.03 L 47.31 43.04 L 47.14 43.06 L 46.99 43.08 L 46.85 43.12 L 46.71 43.17 L 46.58 43.22 L 46.46 43.29 L 46.34 43.37 L 46.24 43.46 L 46.14 43.56 L 46.14 43.56 L 46.05 43.67 L 45.97 43.79 L 45.90 43.91 L 45.83 44.05 L 45.77 44.19 L 45.72 44.34 L 45.68 44.50 L 45.64 44.67 L 45.61 44.84 L 45.58 45.03 L 49.18 45.03 Z"
     style="fill-rule:evenodd;fill:#ff7100;stroke-width:0.75;stroke:none;stroke-opacity:1;fill-opacity:1"
     clip-path="url(#cpMC42ODQ2MjN8MTIzLjYxNnwxNDR8MA==)"
     id="path41" />
  <path
     d="M 54.92 49.39 L 54.92 49.39 L 54.89 49.39 L 54.87 49.39 L 54.85 49.39 L 54.82 49.39 L 54.80 49.39 L 54.77 49.39 L 54.75 49.39 L 54.73 49.39 L 54.70 49.39 L 54.67 49.39 L 54.67 49.39 L 54.65 49.40 L 54.63 49.40 L 54.61 49.40 L 54.58 49.40 L 54.56 49.40 L 54.54 49.41 L 54.52 49.41 L 54.49 49.41 L 54.47 49.41 L 54.45 49.41 L 54.45 49.41 L 54.42 49.41 L 54.39 49.41 L 54.36 49.41 L 54.33 49.41 L 54.30 49.40 L 54.27 49.40 L 54.24 49.40 L 54.21 49.40 L 54.18 49.40 L 54.15 49.39 L 54.15 49.39 L 54.12 49.39 L 54.09 49.39 L 54.06 49.39 L 54.03 49.39 L 54.01 49.39 L 53.98 49.39 L 53.96 49.39 L 53.93 49.38 L 53.91 49.38 L 53.89 49.38 L 51.47 42.08 L 51.47 42.08 L 51.51 42.08 L 51.55 42.07 L 51.59 42.07 L 51.62 42.06 L 51.66 42.06 L 51.70 42.06 L 51.74 42.06 L 51.78 42.05 L 51.82 42.05 L 51.86 42.05 L 51.86 42.05 L 51.90 42.05 L 51.94 42.05 L 51.97 42.05 L 52.01 42.04 L 52.05 42.04 L 52.09 42.04 L 52.12 42.04 L 52.16 42.04 L 52.19 42.04 L 52.23 42.04 L 52.23 42.04 L 52.26 42.04 L 52.30 42.04 L 52.34 42.04 L 52.38 42.04 L 52.42 42.04 L 52.46 42.04 L 52.51 42.05 L 52.55 42.05 L 52.59 42.05 L 52.64 42.05 L 52.64 42.05 L 52.68 42.05 L 52.73 42.05 L 52.77 42.06 L 52.81 42.06 L 52.85 42.06 L 52.89 42.06 L 52.92 42.07 L 52.96 42.07 L 52.99 42.08 L 53.02 42.08 L 55.04 48.87 L 57.14 42.08 L 57.14 42.08 L 57.20 42.07 L 57.26 42.07 L 57.32 42.06 L 57.39 42.05 L 57.46 42.05 L 57.53 42.05 L 57.60 42.04 L 57.68 42.04 L 57.75 42.04 L 57.83 42.04 L 57.83 42.04 L 57.86 42.04 L 57.90 42.04 L 57.93 42.04 L 57.96 42.04 L 58.00 42.04 L 58.04 42.04 L 58.07 42.05 L 58.11 42.05 L 58.15 42.05 L 58.19 42.05 L 58.19 42.05 L 58.23 42.05 L 58.27 42.05 L 58.31 42.06 L 58.35 42.06 L 58.39 42.06 L 58.43 42.06 L 58.47 42.07 L 58.51 42.07 L 58.55 42.08 L 58.59 42.08 L 55.76 50.86 L 55.76 50.86 L 55.72 50.97 L 55.68 51.09 L 55.63 51.19 L 55.59 51.30 L 55.55 51.40 L 55.51 51.49 L 55.47 51.59 L 55.43 51.67 L 55.39 51.76 L 55.34 51.84 L 55.34 51.84 L 55.30 51.92 L 55.26 51.99 L 55.21 52.07 L 55.16 52.13 L 55.12 52.20 L 55.07 52.26 L 55.02 52.32 L 54.97 52.38 L 54.91 52.43 L 54.86 52.48 L 54.86 52.48 L 54.80 52.53 L 54.75 52.57 L 54.69 52.61 L 54.63 52.65 L 54.57 52.69 L 54.51 52.72 L 54.45 52.75 L 54.38 52.78 L 54.32 52.80 L 54.25 52.82 L 54.25 52.82 L 54.18 52.84 L 54.11 52.86 L 54.04 52.87 L 53.97 52.89 L 53.89 52.90 L 53.81 52.91 L 53.73 52.91 L 53.65 52.92 L 53.57 52.92 L 53.48 52.92 L 53.48 52.92 L 53.41 52.92 L 53.35 52.92 L 53.28 52.92 L 53.22 52.91 L 53.15 52.91 L 53.09 52.90 L 53.02 52.89 L 52.96 52.89 L 52.89 52.88 L 52.82 52.87 L 52.82 52.87 L 52.76 52.86 L 52.70 52.85 L 52.64 52.84 L 52.59 52.83 L 52.53 52.82 L 52.47 52.80 L 52.42 52.79 L 52.37 52.78 L 52.32 52.77 L 52.27 52.75 L 52.27 52.75 L 52.27 52.69 L 52.27 52.62 L 52.28 52.56 L 52.28 52.50 L 52.28 52.44 L 52.29 52.38 L 52.30 52.33 L 52.31 52.27 L 52.32 52.22 L 52.33 52.17 L 52.33 52.17 L 52.34 52.12 L 52.35 52.07 L 52.37 52.01 L 52.38 51.96 L 52.40 51.91 L 52.42 51.86 L 52.43 51.81 L 52.45 51.76 L 52.48 51.71 L 52.50 51.66 L 52.50 51.66 L 52.52 51.66 L 52.55 51.67 L 52.58 51.68 L 52.61 51.69 L 52.65 51.70 L 52.68 51.71 L 52.72 51.72 L 52.76 51.72 L 52.80 51.73 L 52.84 51.74 L 52.84 51.74 L 52.88 51.75 L 52.93 51.76 L 52.98 51.77 L 53.03 51.78 L 53.07 51.78 L 53.12 51.79 L 53.17 51.79 L 53.22 51.80 L 53.27 51.80 L 53.32 51.80 L 53.32 51.80 L 53.36 51.80 L 53.40 51.80 L 53.43 51.79 L 53.47 51.79 L 53.50 51.79 L 53.53 51.78 L 53.57 51.78 L 53.60 51.77 L 53.63 51.76 L 53.66 51.76 L 53.66 51.76 L 53.70 51.75 L 53.73 51.74 L 53.76 51.73 L 53.80 51.72 L 53.83 51.71 L 53.86 51.69 L 53.89 51.67 L 53.92 51.66 L 53.95 51.64 L 53.98 51.61 L 53.98 51.61 L 54.01 51.59 L 54.03 51.57 L 54.06 51.54 L 54.09 51.52 L 54.11 51.49 L 54.14 51.46 L 54.16 51.43 L 54.19 51.39 L 54.21 51.35 L 54.23 51.31 L 54.23 51.31 L 54.26 51.27 L 54.28 51.23 L 54.31 51.18 L 54.33 51.13 L 54.36 51.08 L 54.38 51.02 L 54.41 50.97 L 54.43 50.90 L 54.45 50.84 L 54.48 50.77 L 54.92 49.39 Z"
     style="fill-rule:evenodd;fill:#ff7100;stroke-width:0.75;stroke:none;stroke-opacity:1;fill-opacity:1"
     clip-path="url(#cpMC42ODQ2MjN8MTIzLjYxNnwxNDR8MA==)"
     id="path43" />
  <path
     d="M 60.22 43.21 L 59.11 43.21 L 59.06 43.01 L 61.50 40.27 L 61.62 40.27 L 61.62 42.08 L 63.47 42.08 L 63.47 42.08 L 63.48 42.13 L 63.49 42.18 L 63.50 42.23 L 63.50 42.28 L 63.51 42.34 L 63.51 42.39 L 63.52 42.45 L 63.52 42.51 L 63.52 42.56 L 63.52 42.62 L 63.52 42.62 L 63.52 42.65 L 63.52 42.68 L 63.52 42.71 L 63.52 42.75 L 63.52 42.78 L 63.52 42.80 L 63.52 42.83 L 63.51 42.86 L 63.51 42.89 L 63.51 42.92 L 63.51 42.92 L 63.51 42.95 L 63.50 42.98 L 63.50 43.01 L 63.50 43.03 L 63.49 43.06 L 63.49 43.09 L 63.48 43.12 L 63.48 43.15 L 63.47 43.18 L 63.47 43.21 L 61.62 43.21 L 61.62 46.53 L 61.62 46.53 L 61.62 46.65 L 61.62 46.76 L 61.62 46.87 L 61.62 46.97 L 61.63 47.07 L 61.63 47.16 L 61.64 47.25 L 61.64 47.34 L 61.65 47.41 L 61.66 47.49 L 61.66 47.49 L 61.67 47.56 L 61.68 47.62 L 61.70 47.69 L 61.71 47.75 L 61.73 47.80 L 61.75 47.86 L 61.77 47.91 L 61.79 47.96 L 61.81 48.00 L 61.83 48.04 L 61.83 48.04 L 61.86 48.08 L 61.88 48.11 L 61.91 48.14 L 61.94 48.17 L 61.98 48.20 L 62.01 48.22 L 62.04 48.25 L 62.08 48.27 L 62.12 48.28 L 62.16 48.30 L 62.16 48.30 L 62.20 48.31 L 62.25 48.32 L 62.29 48.33 L 62.34 48.34 L 62.40 48.34 L 62.45 48.35 L 62.50 48.35 L 62.56 48.35 L 62.62 48.35 L 62.68 48.36 L 62.68 48.36 L 62.73 48.36 L 62.78 48.35 L 62.83 48.35 L 62.87 48.35 L 62.92 48.35 L 62.96 48.35 L 63.01 48.34 L 63.05 48.34 L 63.10 48.33 L 63.14 48.33 L 63.14 48.33 L 63.18 48.32 L 63.22 48.31 L 63.26 48.30 L 63.30 48.29 L 63.34 48.28 L 63.38 48.28 L 63.42 48.27 L 63.45 48.26 L 63.49 48.25 L 63.52 48.24 L 63.52 48.24 L 63.54 48.30 L 63.56 48.36 L 63.58 48.41 L 63.59 48.47 L 63.60 48.53 L 63.61 48.59 L 63.62 48.65 L 63.63 48.71 L 63.63 48.77 L 63.64 48.83 L 63.64 48.83 L 63.64 48.88 L 63.65 48.94 L 63.65 49.00 L 63.66 49.05 L 63.66 49.11 L 63.66 49.16 L 63.66 49.21 L 63.66 49.26 L 63.67 49.31 L 63.67 49.35 L 63.67 49.35 L 63.61 49.37 L 63.55 49.38 L 63.49 49.39 L 63.43 49.40 L 63.37 49.41 L 63.31 49.42 L 63.25 49.43 L 63.19 49.44 L 63.13 49.44 L 63.07 49.45 L 63.07 49.45 L 63.00 49.46 L 62.94 49.47 L 62.88 49.47 L 62.81 49.48 L 62.74 49.48 L 62.68 49.49 L 62.61 49.49 L 62.54 49.49 L 62.47 49.49 L 62.40 49.49 L 62.40 49.49 L 62.20 49.49 L 62.01 49.47 L 61.82 49.45 L 61.65 49.41 L 61.49 49.37 L 61.33 49.31 L 61.18 49.25 L 61.04 49.17 L 60.91 49.09 L 60.79 49.00 L 60.79 49.00 L 60.68 48.89 L 60.59 48.77 L 60.50 48.64 L 60.43 48.49 L 60.36 48.33 L 60.31 48.16 L 60.27 47.98 L 60.25 47.78 L 60.23 47.57 L 60.22 47.35 L 60.22 43.21 Z"
     style="fill-rule:evenodd;fill:#ff7100;stroke-width:0.75;stroke:none;stroke-opacity:1;fill-opacity:1"
     clip-path="url(#cpMC42ODQ2MjN8MTIzLjYxNnwxNDR8MA==)"
     id="path45" />
  <path
     d="M 68.00 49.55 L 68.00 49.55 L 67.84 49.55 L 67.67 49.54 L 67.51 49.52 L 67.36 49.51 L 67.20 49.48 L 67.06 49.45 L 66.91 49.41 L 66.78 49.37 L 66.64 49.32 L 66.51 49.27 L 66.51 49.27 L 66.38 49.20 L 66.26 49.14 L 66.15 49.07 L 66.03 48.99 L 65.92 48.91 L 65.82 48.83 L 65.72 48.74 L 65.62 48.65 L 65.53 48.56 L 65.44 48.46 L 65.44 48.46 L 65.36 48.35 L 65.28 48.24 L 65.21 48.13 L 65.14 48.02 L 65.07 47.90 L 65.01 47.77 L 64.95 47.65 L 64.90 47.52 L 64.85 47.38 L 64.80 47.25 L 64.80 47.25 L 64.77 47.11 L 64.73 46.96 L 64.70 46.82 L 64.68 46.67 L 64.65 46.52 L 64.64 46.37 L 64.62 46.21 L 64.61 46.06 L 64.61 45.90 L 64.60 45.74 L 64.60 45.74 L 64.61 45.58 L 64.61 45.42 L 64.62 45.26 L 64.64 45.11 L 64.65 44.96 L 64.68 44.81 L 64.70 44.66 L 64.73 44.51 L 64.77 44.37 L 64.80 44.23 L 64.80 44.23 L 64.85 44.09 L 64.90 43.96 L 64.95 43.83 L 65.01 43.70 L 65.07 43.58 L 65.14 43.46 L 65.21 43.34 L 65.28 43.23 L 65.36 43.12 L 65.44 43.02 L 65.44 43.02 L 65.53 42.92 L 65.62 42.82 L 65.72 42.73 L 65.82 42.65 L 65.92 42.56 L 66.03 42.48 L 66.15 42.41 L 66.26 42.34 L 66.38 42.27 L 66.51 42.21 L 66.51 42.21 L 66.64 42.15 L 66.78 42.10 L 66.91 42.06 L 67.06 42.02 L 67.20 41.99 L 67.36 41.96 L 67.51 41.94 L 67.67 41.92 L 67.84 41.91 L 68.00 41.91 L 68.00 41.91 L 68.17 41.91 L 68.34 41.92 L 68.50 41.94 L 68.65 41.96 L 68.80 41.99 L 68.95 42.02 L 69.09 42.06 L 69.23 42.10 L 69.37 42.15 L 69.50 42.21 L 69.50 42.21 L 69.62 42.27 L 69.75 42.34 L 69.86 42.41 L 69.98 42.48 L 70.09 42.56 L 70.19 42.65 L 70.29 42.73 L 70.39 42.82 L 70.48 42.92 L 70.57 43.02 L 70.57 43.02 L 70.65 43.12 L 70.73 43.23 L 70.80 43.34 L 70.87 43.46 L 70.94 43.58 L 71.00 43.70 L 71.05 43.83 L 71.10 43.96 L 71.15 44.09 L 71.19 44.23 L 71.19 44.23 L 71.23 44.37 L 71.27 44.51 L 71.30 44.66 L 71.33 44.81 L 71.35 44.96 L 71.37 45.11 L 71.39 45.26 L 71.40 45.42 L 71.40 45.58 L 71.40 45.74 L 71.40 45.74 L 71.40 45.90 L 71.40 46.06 L 71.39 46.21 L 71.37 46.37 L 71.35 46.52 L 71.33 46.67 L 71.30 46.82 L 71.27 46.96 L 71.23 47.11 L 71.19 47.25 L 71.19 47.25 L 71.15 47.38 L 71.10 47.52 L 71.05 47.65 L 71.00 47.77 L 70.94 47.90 L 70.87 48.02 L 70.80 48.13 L 70.73 48.24 L 70.65 48.35 L 70.57 48.46 L 70.57 48.46 L 70.48 48.56 L 70.39 48.65 L 70.29 48.74 L 70.19 48.83 L 70.09 48.91 L 69.98 48.99 L 69.86 49.07 L 69.75 49.14 L 69.62 49.20 L 69.50 49.27 L 69.50 49.27 L 69.37 49.32 L 69.23 49.37 L 69.09 49.41 L 68.95 49.45 L 68.80 49.48 L 68.65 49.51 L 68.50 49.52 L 68.34 49.54 L 68.17 49.55 L 68.00 49.55 ZM 68.00 48.43 L 68.00 48.43 L 68.20 48.42 L 68.38 48.40 L 68.55 48.36 L 68.71 48.31 L 68.86 48.25 L 69.00 48.17 L 69.13 48.08 L 69.25 47.97 L 69.36 47.85 L 69.46 47.72 L 69.46 47.72 L 69.54 47.57 L 69.62 47.41 L 69.70 47.24 L 69.76 47.06 L 69.81 46.87 L 69.85 46.66 L 69.88 46.45 L 69.91 46.22 L 69.92 45.99 L 69.93 45.74 L 69.93 45.74 L 69.92 45.49 L 69.91 45.25 L 69.88 45.03 L 69.85 44.82 L 69.81 44.61 L 69.76 44.42 L 69.70 44.24 L 69.62 44.08 L 69.54 43.92 L 69.46 43.77 L 69.46 43.77 L 69.36 43.64 L 69.25 43.52 L 69.13 43.41 L 69.00 43.32 L 68.86 43.24 L 68.71 43.18 L 68.55 43.13 L 68.38 43.09 L 68.20 43.07 L 68.00 43.06 L 68.00 43.06 L 67.81 43.07 L 67.63 43.09 L 67.46 43.13 L 67.30 43.18 L 67.15 43.24 L 67.01 43.32 L 66.88 43.41 L 66.76 43.52 L 66.65 43.64 L 66.55 43.77 L 66.55 43.77 L 66.47 43.92 L 66.39 44.08 L 66.32 44.24 L 66.26 44.42 L 66.21 44.61 L 66.17 44.82 L 66.14 45.03 L 66.12 45.25 L 66.10 45.49 L 66.10 45.74 L 66.10 45.74 L 66.10 45.99 L 66.12 46.22 L 66.14 46.45 L 66.17 46.66 L 66.21 46.87 L 66.26 47.06 L 66.32 47.24 L 66.39 47.41 L 66.47 47.57 L 66.55 47.72 L 66.55 47.72 L 66.65 47.85 L 66.76 47.97 L 66.88 48.08 L 67.01 48.17 L 67.15 48.25 L 67.30 48.31 L 67.46 48.36 L 67.63 48.40 L 67.81 48.42 L 68.00 48.43 Z"
     style="fill-rule:evenodd;fill:#ff7100;stroke-width:0.75;stroke:none;stroke-opacity:1;fill-opacity:1"
     clip-path="url(#cpMC42ODQ2MjN8MTIzLjYxNnwxNDR8MA==)"
     id="path47" />
  <path
     d="M 76.21 49.55 L 76.21 49.55 L 76.04 49.55 L 75.88 49.54 L 75.72 49.52 L 75.56 49.51 L 75.41 49.48 L 75.27 49.45 L 75.12 49.41 L 74.98 49.37 L 74.85 49.32 L 74.72 49.27 L 74.72 49.27 L 74.59 49.20 L 74.47 49.14 L 74.35 49.07 L 74.24 48.99 L 74.13 48.91 L 74.03 48.83 L 73.93 48.74 L 73.83 48.65 L 73.74 48.56 L 73.65 48.46 L 73.65 48.46 L 73.57 48.35 L 73.49 48.24 L 73.42 48.13 L 73.35 48.02 L 73.28 47.90 L 73.22 47.77 L 73.16 47.65 L 73.11 47.52 L 73.06 47.38 L 73.01 47.25 L 73.01 47.25 L 72.97 47.11 L 72.94 46.96 L 72.91 46.82 L 72.88 46.67 L 72.86 46.52 L 72.84 46.37 L 72.83 46.21 L 72.82 46.06 L 72.81 45.90 L 72.81 45.74 L 72.81 45.74 L 72.81 45.58 L 72.82 45.42 L 72.83 45.26 L 72.84 45.11 L 72.86 44.96 L 72.88 44.81 L 72.91 44.66 L 72.94 44.51 L 72.97 44.37 L 73.01 44.23 L 73.01 44.23 L 73.06 44.09 L 73.11 43.96 L 73.16 43.83 L 73.22 43.70 L 73.28 43.58 L 73.35 43.46 L 73.42 43.34 L 73.49 43.23 L 73.57 43.12 L 73.65 43.02 L 73.65 43.02 L 73.74 42.92 L 73.83 42.82 L 73.93 42.73 L 74.03 42.65 L 74.13 42.56 L 74.24 42.48 L 74.35 42.41 L 74.47 42.34 L 74.59 42.27 L 74.72 42.21 L 74.72 42.21 L 74.85 42.15 L 74.98 42.10 L 75.12 42.06 L 75.27 42.02 L 75.41 41.99 L 75.56 41.96 L 75.72 41.94 L 75.88 41.92 L 76.04 41.91 L 76.21 41.91 L 76.21 41.91 L 76.38 41.91 L 76.55 41.92 L 76.71 41.94 L 76.86 41.96 L 77.01 41.99 L 77.16 42.02 L 77.30 42.06 L 77.44 42.10 L 77.58 42.15 L 77.71 42.21 L 77.71 42.21 L 77.83 42.27 L 77.95 42.34 L 78.07 42.41 L 78.18 42.48 L 78.29 42.56 L 78.40 42.65 L 78.50 42.73 L 78.59 42.82 L 78.69 42.92 L 78.77 43.02 L 78.77 43.02 L 78.86 43.12 L 78.94 43.23 L 79.01 43.34 L 79.08 43.46 L 79.14 43.58 L 79.20 43.70 L 79.26 43.83 L 79.31 43.96 L 79.36 44.09 L 79.40 44.23 L 79.40 44.23 L 79.44 44.37 L 79.48 44.51 L 79.51 44.66 L 79.54 44.81 L 79.56 44.96 L 79.58 45.11 L 79.59 45.26 L 79.60 45.42 L 79.61 45.58 L 79.61 45.74 L 79.61 45.74 L 79.61 45.90 L 79.60 46.06 L 79.59 46.21 L 79.58 46.37 L 79.56 46.52 L 79.54 46.67 L 79.51 46.82 L 79.48 46.96 L 79.44 47.11 L 79.40 47.25 L 79.40 47.25 L 79.36 47.38 L 79.31 47.52 L 79.26 47.65 L 79.20 47.77 L 79.14 47.90 L 79.08 48.02 L 79.01 48.13 L 78.94 48.24 L 78.86 48.35 L 78.77 48.46 L 78.77 48.46 L 78.69 48.56 L 78.59 48.65 L 78.50 48.74 L 78.40 48.83 L 78.29 48.91 L 78.18 48.99 L 78.07 49.07 L 77.95 49.14 L 77.83 49.20 L 77.71 49.27 L 77.71 49.27 L 77.58 49.32 L 77.44 49.37 L 77.30 49.41 L 77.16 49.45 L 77.01 49.48 L 76.86 49.51 L 76.71 49.52 L 76.55 49.54 L 76.38 49.55 L 76.21 49.55 ZM 76.21 48.43 L 76.21 48.43 L 76.40 48.42 L 76.59 48.40 L 76.76 48.36 L 76.92 48.31 L 77.07 48.25 L 77.21 48.17 L 77.34 48.08 L 77.46 47.97 L 77.57 47.85 L 77.66 47.72 L 77.66 47.72 L 77.75 47.57 L 77.83 47.41 L 77.90 47.24 L 77.96 47.06 L 78.02 46.87 L 78.06 46.66 L 78.09 46.45 L 78.11 46.22 L 78.13 45.99 L 78.13 45.74 L 78.13 45.74 L 78.13 45.49 L 78.11 45.25 L 78.09 45.03 L 78.06 44.82 L 78.02 44.61 L 77.96 44.42 L 77.90 44.24 L 77.83 44.08 L 77.75 43.92 L 77.66 43.77 L 77.66 43.77 L 77.57 43.64 L 77.46 43.52 L 77.34 43.41 L 77.21 43.32 L 77.07 43.24 L 76.92 43.18 L 76.76 43.13 L 76.59 43.09 L 76.40 43.07 L 76.21 43.06 L 76.21 43.06 L 76.02 43.07 L 75.84 43.09 L 75.67 43.13 L 75.51 43.18 L 75.36 43.24 L 75.22 43.32 L 75.09 43.41 L 74.97 43.52 L 74.86 43.64 L 74.76 43.77 L 74.76 43.77 L 74.68 43.92 L 74.60 44.08 L 74.53 44.24 L 74.47 44.42 L 74.42 44.61 L 74.38 44.82 L 74.35 45.03 L 74.32 45.25 L 74.31 45.49 L 74.31 45.74 L 74.31 45.74 L 74.31 45.99 L 74.32 46.22 L 74.35 46.45 L 74.38 46.66 L 74.42 46.87 L 74.47 47.06 L 74.53 47.24 L 74.60 47.41 L 74.68 47.57 L 74.76 47.72 L 74.76 47.72 L 74.86 47.85 L 74.97 47.97 L 75.09 48.08 L 75.22 48.17 L 75.36 48.25 L 75.51 48.31 L 75.67 48.36 L 75.84 48.40 L 76.02 48.42 L 76.21 48.43 Z"
     style="fill-rule:evenodd;fill:#ff7100;stroke-width:0.75;stroke:none;stroke-opacity:1;fill-opacity:1"
     clip-path="url(#cpMC42ODQ2MjN8MTIzLjYxNnwxNDR8MA==)"
     id="path49" />
  <path
     d="M 81.43 38.95 L 81.43 38.95 L 81.47 38.95 L 81.50 38.94 L 81.53 38.94 L 81.56 38.93 L 81.60 38.93 L 81.63 38.92 L 81.67 38.92 L 81.70 38.92 L 81.74 38.91 L 81.78 38.91 L 81.78 38.91 L 81.82 38.91 L 81.85 38.90 L 81.89 38.90 L 81.93 38.90 L 81.96 38.90 L 82.00 38.90 L 82.03 38.90 L 82.07 38.90 L 82.10 38.90 L 82.13 38.89 L 82.13 38.89 L 82.16 38.90 L 82.20 38.90 L 82.23 38.90 L 82.26 38.90 L 82.29 38.90 L 82.33 38.90 L 82.36 38.90 L 82.40 38.90 L 82.44 38.91 L 82.47 38.91 L 82.47 38.91 L 82.51 38.91 L 82.55 38.92 L 82.59 38.92 L 82.63 38.92 L 82.66 38.93 L 82.70 38.93 L 82.73 38.94 L 82.76 38.94 L 82.80 38.95 L 82.83 38.95 L 82.83 47.17 L 82.83 47.17 L 82.83 47.25 L 82.83 47.33 L 82.83 47.40 L 82.84 47.47 L 82.85 47.53 L 82.85 47.59 L 82.86 47.65 L 82.87 47.70 L 82.89 47.75 L 82.90 47.80 L 82.90 47.80 L 82.91 47.85 L 82.93 47.89 L 82.95 47.93 L 82.96 47.97 L 82.98 48.00 L 83.00 48.04 L 83.02 48.07 L 83.04 48.10 L 83.06 48.13 L 83.08 48.16 L 83.08 48.16 L 83.11 48.18 L 83.14 48.20 L 83.16 48.22 L 83.19 48.24 L 83.22 48.25 L 83.25 48.27 L 83.28 48.28 L 83.31 48.29 L 83.34 48.30 L 83.37 48.31 L 83.37 48.31 L 83.40 48.32 L 83.44 48.32 L 83.47 48.33 L 83.51 48.33 L 83.54 48.33 L 83.58 48.34 L 83.61 48.34 L 83.65 48.34 L 83.69 48.34 L 83.72 48.34 L 83.72 48.34 L 83.75 48.34 L 83.78 48.34 L 83.80 48.34 L 83.83 48.34 L 83.86 48.34 L 83.89 48.34 L 83.92 48.33 L 83.95 48.33 L 83.98 48.33 L 84.01 48.33 L 84.01 48.33 L 84.04 48.32 L 84.08 48.32 L 84.11 48.32 L 84.14 48.31 L 84.17 48.31 L 84.19 48.30 L 84.22 48.30 L 84.25 48.30 L 84.27 48.29 L 84.29 48.28 L 84.29 48.28 L 84.32 48.38 L 84.34 48.49 L 84.36 48.59 L 84.38 48.70 L 84.39 48.80 L 84.40 48.91 L 84.41 49.02 L 84.42 49.14 L 84.42 49.25 L 84.42 49.37 L 84.42 49.37 L 84.38 49.38 L 84.34 49.39 L 84.29 49.40 L 84.25 49.41 L 84.20 49.42 L 84.15 49.43 L 84.10 49.44 L 84.05 49.44 L 83.99 49.45 L 83.94 49.45 L 83.94 49.45 L 83.88 49.46 L 83.83 49.46 L 83.77 49.47 L 83.72 49.47 L 83.66 49.47 L 83.61 49.47 L 83.56 49.48 L 83.51 49.48 L 83.46 49.48 L 83.41 49.48 L 83.41 49.48 L 83.33 49.48 L 83.25 49.48 L 83.17 49.47 L 83.09 49.46 L 83.01 49.45 L 82.94 49.44 L 82.86 49.43 L 82.79 49.42 L 82.72 49.40 L 82.64 49.38 L 82.64 49.38 L 82.57 49.36 L 82.50 49.33 L 82.44 49.31 L 82.37 49.28 L 82.31 49.25 L 82.25 49.21 L 82.19 49.18 L 82.13 49.14 L 82.07 49.10 L 82.02 49.05 L 82.02 49.05 L 81.96 49.01 L 81.91 48.96 L 81.87 48.90 L 81.82 48.85 L 81.78 48.79 L 81.73 48.72 L 81.69 48.66 L 81.66 48.59 L 81.62 48.52 L 81.59 48.44 L 81.59 48.44 L 81.56 48.36 L 81.53 48.28 L 81.51 48.19 L 81.49 48.10 L 81.47 48.01 L 81.46 47.91 L 81.45 47.81 L 81.44 47.71 L 81.44 47.60 L 81.43 47.49 L 81.43 38.95 Z"
     style="fill-rule:evenodd;fill:#ff7100;stroke-width:0.75;stroke:none;stroke-opacity:1;fill-opacity:1"
     clip-path="url(#cpMC42ODQ2MjN8MTIzLjYxNnwxNDR8MA==)"
     id="path51" />
  <path
     d="M 85.69 38.95 L 85.69 38.95 L 85.72 38.95 L 85.75 38.94 L 85.78 38.94 L 85.82 38.93 L 85.85 38.93 L 85.89 38.92 L 85.92 38.92 L 85.96 38.92 L 85.99 38.91 L 86.03 38.91 L 86.03 38.91 L 86.07 38.91 L 86.11 38.90 L 86.14 38.90 L 86.18 38.90 L 86.22 38.90 L 86.25 38.90 L 86.29 38.90 L 86.32 38.90 L 86.35 38.90 L 86.38 38.89 L 86.38 38.89 L 86.42 38.90 L 86.45 38.90 L 86.48 38.90 L 86.52 38.90 L 86.55 38.90 L 86.59 38.90 L 86.62 38.90 L 86.66 38.90 L 86.70 38.91 L 86.74 38.91 L 86.74 38.91 L 86.78 38.91 L 86.82 38.92 L 86.86 38.92 L 86.89 38.92 L 86.93 38.93 L 86.96 38.93 L 87.00 38.94 L 87.03 38.94 L 87.06 38.95 L 87.10 38.95 L 87.10 42.96 L 87.10 42.96 L 87.15 42.88 L 87.21 42.80 L 87.28 42.72 L 87.35 42.64 L 87.42 42.57 L 87.51 42.49 L 87.59 42.42 L 87.69 42.35 L 87.79 42.29 L 87.89 42.22 L 87.89 42.22 L 88.00 42.16 L 88.12 42.11 L 88.24 42.06 L 88.36 42.02 L 88.49 41.99 L 88.62 41.96 L 88.76 41.94 L 88.90 41.92 L 89.05 41.91 L 89.20 41.91 L 89.20 41.91 L 89.33 41.91 L 89.46 41.92 L 89.59 41.93 L 89.71 41.95 L 89.83 41.96 L 89.95 41.99 L 90.07 42.02 L 90.19 42.05 L 90.30 42.08 L 90.41 42.12 L 90.41 42.12 L 90.52 42.17 L 90.63 42.22 L 90.73 42.27 L 90.83 42.33 L 90.93 42.40 L 91.02 42.47 L 91.11 42.54 L 91.20 42.62 L 91.28 42.70 L 91.36 42.79 L 91.36 42.79 L 91.44 42.88 L 91.52 42.98 L 91.59 43.08 L 91.65 43.19 L 91.72 43.30 L 91.78 43.41 L 91.83 43.54 L 91.88 43.66 L 91.93 43.79 L 91.98 43.93 L 91.98 43.93 L 92.02 44.07 L 92.06 44.21 L 92.09 44.36 L 92.12 44.52 L 92.15 44.68 L 92.17 44.84 L 92.18 45.01 L 92.19 45.19 L 92.20 45.37 L 92.20 45.55 L 92.20 45.55 L 92.19 45.92 L 92.16 46.27 L 92.11 46.61 L 92.03 46.93 L 91.94 47.23 L 91.82 47.51 L 91.68 47.78 L 91.52 48.04 L 91.34 48.28 L 91.14 48.50 L 91.14 48.50 L 90.92 48.70 L 90.68 48.88 L 90.42 49.03 L 90.14 49.17 L 89.85 49.29 L 89.54 49.38 L 89.20 49.46 L 88.85 49.51 L 88.48 49.54 L 88.09 49.55 L 88.09 49.55 L 87.97 49.55 L 87.84 49.55 L 87.71 49.54 L 87.58 49.53 L 87.46 49.52 L 87.33 49.50 L 87.19 49.49 L 87.06 49.47 L 86.93 49.45 L 86.80 49.42 L 86.80 49.42 L 86.67 49.40 L 86.54 49.38 L 86.42 49.35 L 86.31 49.32 L 86.19 49.30 L 86.08 49.27 L 85.98 49.24 L 85.88 49.21 L 85.78 49.18 L 85.69 49.15 L 85.69 38.95 ZM 87.10 48.20 L 87.10 48.20 L 87.15 48.22 L 87.20 48.23 L 87.25 48.25 L 87.31 48.26 L 87.36 48.27 L 87.41 48.29 L 87.47 48.30 L 87.52 48.31 L 87.58 48.32 L 87.64 48.33 L 87.64 48.33 L 87.70 48.33 L 87.76 48.34 L 87.82 48.34 L 87.88 48.35 L 87.94 48.35 L 88.00 48.35 L 88.06 48.35 L 88.12 48.35 L 88.19 48.36 L 88.25 48.36 L 88.25 48.36 L 88.35 48.35 L 88.46 48.35 L 88.56 48.34 L 88.66 48.33 L 88.75 48.32 L 88.85 48.30 L 88.94 48.28 L 89.04 48.26 L 89.13 48.23 L 89.22 48.20 L 89.22 48.20 L 89.31 48.16 L 89.39 48.12 L 89.48 48.08 L 89.56 48.04 L 89.64 47.99 L 89.72 47.94 L 89.79 47.88 L 89.86 47.83 L 89.93 47.77 L 90.00 47.70 L 90.00 47.70 L 90.06 47.63 L 90.12 47.56 L 90.18 47.48 L 90.24 47.40 L 90.29 47.32 L 90.34 47.23 L 90.39 47.14 L 90.43 47.05 L 90.47 46.95 L 90.51 46.85 L 90.51 46.85 L 90.55 46.74 L 90.58 46.63 L 90.61 46.52 L 90.64 46.40 L 90.66 46.27 L 90.68 46.15 L 90.69 46.02 L 90.70 45.89 L 90.71 45.75 L 90.71 45.61 L 90.71 45.61 L 90.71 45.38 L 90.69 45.16 L 90.67 44.95 L 90.64 44.75 L 90.61 44.56 L 90.56 44.38 L 90.51 44.21 L 90.45 44.06 L 90.38 43.91 L 90.30 43.77 L 90.30 43.77 L 90.21 43.65 L 90.11 43.54 L 90.00 43.44 L 89.88 43.36 L 89.75 43.28 L 89.61 43.22 L 89.45 43.18 L 89.29 43.15 L 89.12 43.13 L 88.93 43.12 L 88.93 43.12 L 88.87 43.12 L 88.80 43.12 L 88.74 43.13 L 88.67 43.14 L 88.60 43.15 L 88.54 43.16 L 88.47 43.18 L 88.41 43.19 L 88.34 43.21 L 88.28 43.23 L 88.28 43.23 L 88.21 43.26 L 88.15 43.28 L 88.09 43.31 L 88.03 43.34 L 87.97 43.37 L 87.92 43.40 L 87.86 43.44 L 87.80 43.48 L 87.75 43.53 L 87.69 43.58 L 87.69 43.58 L 87.64 43.62 L 87.59 43.67 L 87.54 43.73 L 87.49 43.78 L 87.45 43.85 L 87.41 43.91 L 87.36 43.98 L 87.33 44.05 L 87.29 44.12 L 87.25 44.20 L 87.25 44.20 L 87.22 44.28 L 87.20 44.36 L 87.17 44.45 L 87.15 44.54 L 87.14 44.63 L 87.12 44.72 L 87.11 44.82 L 87.10 44.93 L 87.10 45.03 L 87.10 45.14 L 87.10 48.20 Z"
     style="fill-rule:evenodd;fill:#ff7100;stroke-width:0.75;stroke:none;stroke-opacity:1;fill-opacity:1"
     clip-path="url(#cpMC42ODQ2MjN8MTIzLjYxNnwxNDR8MA==)"
     id="path53" />
  <path
     d="M 97.05 49.55 L 97.05 49.55 L 96.89 49.55 L 96.72 49.54 L 96.56 49.52 L 96.41 49.51 L 96.25 49.48 L 96.11 49.45 L 95.96 49.41 L 95.83 49.37 L 95.69 49.32 L 95.56 49.27 L 95.56 49.27 L 95.44 49.20 L 95.31 49.14 L 95.20 49.07 L 95.08 48.99 L 94.97 48.91 L 94.87 48.83 L 94.77 48.74 L 94.67 48.65 L 94.58 48.56 L 94.49 48.46 L 94.49 48.46 L 94.41 48.35 L 94.33 48.24 L 94.26 48.13 L 94.19 48.02 L 94.12 47.90 L 94.06 47.77 L 94.00 47.65 L 93.95 47.52 L 93.90 47.38 L 93.85 47.25 L 93.85 47.25 L 93.82 47.11 L 93.78 46.96 L 93.75 46.82 L 93.73 46.67 L 93.70 46.52 L 93.69 46.37 L 93.67 46.21 L 93.66 46.06 L 93.66 45.90 L 93.65 45.74 L 93.65 45.74 L 93.66 45.58 L 93.66 45.42 L 93.67 45.26 L 93.69 45.11 L 93.70 44.96 L 93.73 44.81 L 93.75 44.66 L 93.78 44.51 L 93.82 44.37 L 93.85 44.23 L 93.85 44.23 L 93.90 44.09 L 93.95 43.96 L 94.00 43.83 L 94.06 43.70 L 94.12 43.58 L 94.19 43.46 L 94.26 43.34 L 94.33 43.23 L 94.41 43.12 L 94.49 43.02 L 94.49 43.02 L 94.58 42.92 L 94.67 42.82 L 94.77 42.73 L 94.87 42.65 L 94.97 42.56 L 95.08 42.48 L 95.20 42.41 L 95.31 42.34 L 95.44 42.27 L 95.56 42.21 L 95.56 42.21 L 95.69 42.15 L 95.83 42.10 L 95.96 42.06 L 96.11 42.02 L 96.25 41.99 L 96.41 41.96 L 96.56 41.94 L 96.72 41.92 L 96.89 41.91 L 97.05 41.91 L 97.05 41.91 L 97.22 41.91 L 97.39 41.92 L 97.55 41.94 L 97.70 41.96 L 97.85 41.99 L 98.00 42.02 L 98.15 42.06 L 98.28 42.10 L 98.42 42.15 L 98.55 42.21 L 98.55 42.21 L 98.67 42.27 L 98.80 42.34 L 98.91 42.41 L 99.03 42.48 L 99.14 42.56 L 99.24 42.65 L 99.34 42.73 L 99.44 42.82 L 99.53 42.92 L 99.62 43.02 L 99.62 43.02 L 99.70 43.12 L 99.78 43.23 L 99.85 43.34 L 99.92 43.46 L 99.99 43.58 L 100.05 43.70 L 100.10 43.83 L 100.15 43.96 L 100.20 44.09 L 100.24 44.23 L 100.24 44.23 L 100.28 44.37 L 100.32 44.51 L 100.35 44.66 L 100.38 44.81 L 100.40 44.96 L 100.42 45.11 L 100.44 45.26 L 100.45 45.42 L 100.45 45.58 L 100.45 45.74 L 100.45 45.74 L 100.45 45.90 L 100.45 46.06 L 100.44 46.21 L 100.42 46.37 L 100.40 46.52 L 100.38 46.67 L 100.35 46.82 L 100.32 46.96 L 100.28 47.11 L 100.24 47.25 L 100.24 47.25 L 100.20 47.38 L 100.15 47.52 L 100.10 47.65 L 100.05 47.77 L 99.99 47.90 L 99.92 48.02 L 99.85 48.13 L 99.78 48.24 L 99.70 48.35 L 99.62 48.46 L 99.62 48.46 L 99.53 48.56 L 99.44 48.65 L 99.34 48.74 L 99.24 48.83 L 99.14 48.91 L 99.03 48.99 L 98.91 49.07 L 98.80 49.14 L 98.67 49.20 L 98.55 49.27 L 98.55 49.27 L 98.42 49.32 L 98.28 49.37 L 98.15 49.41 L 98.00 49.45 L 97.85 49.48 L 97.70 49.51 L 97.55 49.52 L 97.39 49.54 L 97.22 49.55 L 97.05 49.55 ZM 97.05 48.43 L 97.05 48.43 L 97.25 48.42 L 97.43 48.40 L 97.60 48.36 L 97.76 48.31 L 97.91 48.25 L 98.05 48.17 L 98.18 48.08 L 98.30 47.97 L 98.41 47.85 L 98.51 47.72 L 98.51 47.72 L 98.60 47.57 L 98.67 47.41 L 98.75 47.24 L 98.81 47.06 L 98.86 46.87 L 98.90 46.66 L 98.93 46.45 L 98.96 46.22 L 98.97 45.99 L 98.98 45.74 L 98.98 45.74 L 98.97 45.49 L 98.96 45.25 L 98.93 45.03 L 98.90 44.82 L 98.86 44.61 L 98.81 44.42 L 98.75 44.24 L 98.67 44.08 L 98.60 43.92 L 98.51 43.77 L 98.51 43.77 L 98.41 43.64 L 98.30 43.52 L 98.18 43.41 L 98.05 43.32 L 97.91 43.24 L 97.76 43.18 L 97.60 43.13 L 97.43 43.09 L 97.25 43.07 L 97.05 43.06 L 97.05 43.06 L 96.86 43.07 L 96.68 43.09 L 96.51 43.13 L 96.35 43.18 L 96.20 43.24 L 96.06 43.32 L 95.93 43.41 L 95.81 43.52 L 95.70 43.64 L 95.60 43.77 L 95.60 43.77 L 95.52 43.92 L 95.44 44.08 L 95.37 44.24 L 95.31 44.42 L 95.26 44.61 L 95.22 44.82 L 95.19 45.03 L 95.17 45.25 L 95.15 45.49 L 95.15 45.74 L 95.15 45.74 L 95.15 45.99 L 95.17 46.22 L 95.19 46.45 L 95.22 46.66 L 95.26 46.87 L 95.31 47.06 L 95.37 47.24 L 95.44 47.41 L 95.52 47.57 L 95.60 47.72 L 95.60 47.72 L 95.70 47.85 L 95.81 47.97 L 95.93 48.08 L 96.06 48.17 L 96.20 48.25 L 96.35 48.31 L 96.51 48.36 L 96.68 48.40 L 96.86 48.42 L 97.05 48.43 Z"
     style="fill-rule:evenodd;fill:#ff7100;stroke-width:0.75;stroke:none;stroke-opacity:1;fill-opacity:1"
     clip-path="url(#cpMC42ODQ2MjN8MTIzLjYxNnwxNDR8MA==)"
     id="path55" />
  <path
     d="M 103.40 45.60 L 101.68 42.08 L 101.68 42.08 L 101.74 42.07 L 101.81 42.06 L 101.88 42.05 L 101.95 42.05 L 102.03 42.04 L 102.10 42.03 L 102.18 42.03 L 102.26 42.03 L 102.34 42.03 L 102.42 42.02 L 102.42 42.02 L 102.46 42.02 L 102.50 42.03 L 102.54 42.03 L 102.58 42.03 L 102.61 42.03 L 102.65 42.03 L 102.69 42.03 L 102.73 42.03 L 102.77 42.04 L 102.80 42.04 L 102.80 42.04 L 102.84 42.04 L 102.88 42.05 L 102.92 42.05 L 102.96 42.05 L 103.00 42.06 L 103.05 42.06 L 103.09 42.07 L 103.13 42.07 L 103.17 42.08 L 103.21 42.08 L 104.72 45.61 L 102.90 49.38 L 102.90 49.38 L 102.86 49.39 L 102.83 49.39 L 102.79 49.40 L 102.75 49.40 L 102.72 49.40 L 102.68 49.41 L 102.64 49.41 L 102.61 49.42 L 102.57 49.42 L 102.53 49.42 L 102.53 49.42 L 102.50 49.43 L 102.46 49.43 L 102.43 49.43 L 102.40 49.43 L 102.36 49.43 L 102.33 49.43 L 102.29 49.44 L 102.26 49.44 L 102.22 49.44 L 102.19 49.44 L 102.19 49.44 L 102.15 49.44 L 102.11 49.44 L 102.07 49.44 L 102.03 49.43 L 101.99 49.43 L 101.96 49.43 L 101.92 49.43 L 101.88 49.43 L 101.84 49.43 L 101.81 49.42 L 101.81 49.42 L 101.77 49.42 L 101.73 49.42 L 101.69 49.41 L 101.66 49.41 L 101.62 49.40 L 101.58 49.40 L 101.54 49.40 L 101.50 49.39 L 101.46 49.39 L 101.42 49.38 L 103.40 45.60 ZM 104.84 45.61 L 106.36 42.08 L 106.36 42.08 L 106.40 42.08 L 106.44 42.07 L 106.48 42.07 L 106.52 42.06 L 106.56 42.06 L 106.60 42.05 L 106.64 42.05 L 106.68 42.05 L 106.72 42.04 L 106.76 42.04 L 106.76 42.04 L 106.80 42.04 L 106.84 42.03 L 106.88 42.03 L 106.92 42.03 L 106.96 42.03 L 107.00 42.03 L 107.04 42.03 L 107.08 42.03 L 107.12 42.02 L 107.16 42.02 L 107.16 42.02 L 107.23 42.03 L 107.31 42.03 L 107.38 42.03 L 107.45 42.03 L 107.53 42.04 L 107.60 42.05 L 107.67 42.05 L 107.73 42.06 L 107.80 42.07 L 107.87 42.08 L 106.17 45.55 L 108.15 49.38 L 108.15 49.38 L 108.11 49.39 L 108.07 49.39 L 108.03 49.40 L 107.99 49.40 L 107.96 49.40 L 107.92 49.41 L 107.88 49.41 L 107.84 49.42 L 107.80 49.42 L 107.77 49.42 L 107.77 49.42 L 107.73 49.43 L 107.69 49.43 L 107.65 49.43 L 107.62 49.43 L 107.58 49.43 L 107.54 49.43 L 107.50 49.44 L 107.46 49.44 L 107.42 49.44 L 107.38 49.44 L 107.38 49.44 L 107.31 49.44 L 107.23 49.43 L 107.16 49.43 L 107.08 49.43 L 107.01 49.42 L 106.94 49.42 L 106.87 49.41 L 106.80 49.40 L 106.74 49.39 L 106.67 49.38 L 104.84 45.61 Z"
     style="fill-rule:evenodd;fill:#ff7100;stroke-width:0.75;stroke:none;stroke-opacity:1;fill-opacity:1"
     clip-path="url(#cpMC42ODQ2MjN8MTIzLjYxNnwxNDR8MA==)"
     id="path57" />
  <defs
     id="defs63">
    <clipPath
       id="clipPath61">
      <rect
         x="0.00"
         y="0.00"
         width="124.44"
         height="144.00"
         id="rect59" />
    </clipPath>
  </defs>
  <path
     inkscape:connector-curvature="0"
     style="fill:#995023;stroke:none;stroke-width:0.11166584;stroke-linecap:round;stroke-linejoin:round;stroke-miterlimit:10"
     d="m 34.203486,67.289918 h 3.573308 v 41.093032 h -3.573308 z m 0,0"
     id="path2" />
  <path
     inkscape:connector-curvature="0"
     style="fill:#995023;stroke:none;stroke-width:0.11166584;stroke-linecap:round;stroke-linejoin:round;stroke-miterlimit:10"
     d="m 82.443134,67.289918 h 3.573304 v 41.093032 h -3.573304 z m 0,0"
     id="path4" />
  <path
     inkscape:connector-curvature="0"
     style="fill:#8f4b20;stroke:none;stroke-width:0.11166584;stroke-linecap:round;stroke-linejoin:round;stroke-miterlimit:10"
     d="m 37.776794,70.863228 h 44.66634 v 3.573309 h -44.66634 z m 0,0"
     id="path6" />
  <path
     inkscape:connector-curvature="0"
     style="fill:#c4c4c2;stroke:none;stroke-width:0.11166584;stroke-linecap:round;stroke-linejoin:round;stroke-miterlimit:10"
     d="M 48.496712,91.43592 V 70.28876 c -0.01002,-1.180345 0.272623,-2.344983 0.822666,-3.390105 0.844038,-1.57379 1.857317,-2.64596 1.857317,-4.522032 0,-1.554161 -0.622887,-3.043767 -1.72995,-4.135125 C 48.340118,57.150138 46.841792,56.54819 45.28763,56.57 c -0.703581,0.01224 -1.39844,0.157029 -2.04837,0.427034 l 2.839191,2.839191 c 0.348519,0.348957 0.348519,0.914264 0,1.263222 l -1.894831,1.894827 c -0.167501,0.1675 -0.394756,0.261717 -0.632048,0.261717 -0.237288,0 -0.464547,-0.09422 -0.632043,-0.261717 l -2.871035,-2.870596 c -0.355934,0.803472 -0.519071,1.678911 -0.477198,2.556973 0.18451,1.268892 0.68134,2.472351 1.445553,3.502644 0.77817,1.196482 1.203458,2.58838 1.226576,4.015607 V 91.43592 c -2.173992,1.388837 -3.170696,4.045269 -2.447049,6.52155 0.723646,2.47583 2.99404,4.17787 5.573692,4.17787 2.579658,0 4.849613,-1.70204 5.573264,-4.17787 0.723646,-2.476281 -0.273062,-5.132713 -2.44662,-6.52155 z m -1.759171,7.12045 h -2.679983 l -1.339987,-2.23333 1.339987,-2.23331 h 2.679983 l 1.339987,2.23331 z m 0,0"
     id="path8" />
  <path
     inkscape:connector-curvature="0"
     style="fill:#a6a6a4;stroke:none;stroke-width:0.11166584;stroke-linecap:round;stroke-linejoin:round;stroke-miterlimit:10"
     d="m 44.421346,69.076576 h 1.786653 v 22.333167 h -1.786653 z m 0,0"
     id="path10" />
  <path
     inkscape:connector-curvature="0"
     style="fill:#c4c4c2;stroke:none;stroke-width:0.11166584;stroke-linecap:round;stroke-linejoin:round;stroke-miterlimit:10"
     d="M 58.323308,78.009841 H 54.75 V 62.823288 L 53.856673,60.143305 54.75,56.57 h 3.573308 l 0.893326,3.573305 -0.893326,2.679983 z m 0,0"
     id="path12" />
  <path
     inkscape:connector-curvature="0"
     style="fill:#7ea633;stroke:none;stroke-width:0.11166584;stroke-linecap:round;stroke-linejoin:round;stroke-miterlimit:10"
     d="m 52.070021,78.009841 v 3.573307 h 1.786652 l -1.786652,3.573308 v 16.079874 c 0,2.46712 1.999516,4.46664 4.466635,4.46664 2.466681,0 4.46663,-1.99952 4.46663,-4.46664 V 85.156456 l -1.786652,-3.573308 h 1.786652 v -3.573307 z m 0,0"
     id="path14" />
  <path
     inkscape:connector-curvature="0"
     style="fill:#995023;stroke:none;stroke-width:0.11166584;stroke-linecap:round;stroke-linejoin:round;stroke-miterlimit:10"
     d="m 37.776794,85.156456 h 44.66634 v 23.226494 h -44.66634 z m 0,0"
     id="path16" />
  <path
     inkscape:connector-curvature="0"
     style="fill:#fdb62f;stroke:none;stroke-width:0.11166584;stroke-linecap:round;stroke-linejoin:round;stroke-miterlimit:10"
     d="m 64.576595,56.57 h 7.146615 v 28.586456 h -7.146615 z m 0,0"
     id="path18" />
  <g
     transform="matrix(0.11166584,0,0,0.11166584,34.203047,56.569562)"
     id="g34"
     style="fill:#fd882f;stroke:none">
    <path
       d="m 272.00391,24.003906 h 32 v 16 h -32 z m 0,0"
       id="path20"
       inkscape:connector-curvature="0"
       style="fill:none;stroke:none;stroke-linecap:round;stroke-linejoin:round;stroke-miterlimit:10" />
    <path
       d="m 272.00391,56.003906 h 32 v 16 h -32 z m 0,0"
       id="path22"
       inkscape:connector-curvature="0"
       style="fill:none;stroke:none;stroke-linecap:round;stroke-linejoin:round;stroke-miterlimit:10" />
    <path
       d="m 272.00391,88.003906 h 32 v 16.000004 h -32 z m 0,0"
       id="path24"
       inkscape:connector-curvature="0"
       style="fill:none;stroke:none;stroke-linecap:round;stroke-linejoin:round;stroke-miterlimit:10" />
    <path
       d="m 272.00391,120.00391 h 32 v 16 h -32 z m 0,0"
       id="path26"
       inkscape:connector-curvature="0"
       style="fill:none;stroke:none;stroke-linecap:round;stroke-linejoin:round;stroke-miterlimit:10" />
    <path
       d="m 272.00391,152.00391 h 32 v 16 h -32 z m 0,0"
       id="path28"
       inkscape:connector-curvature="0"
       style="fill:none;stroke:none;stroke-linecap:round;stroke-linejoin:round;stroke-miterlimit:10" />
    <path
       d="m 272.00391,184.00391 h 32 v 16 h -32 z m 0,0"
       id="path30"
       inkscape:connector-curvature="0"
       style="fill:none;stroke:none;stroke-linecap:round;stroke-linejoin:round;stroke-miterlimit:10" />
    <path
       d="m 272.00391,216.00391 h 32 v 16 h -32 z m 0,0"
       id="path32"
       inkscape:connector-curvature="0"
       style="fill:none;stroke:none;stroke-linecap:round;stroke-linejoin:round;stroke-miterlimit:10" />
  </g>
  <path
     inkscape:connector-curvature="0"
     style="fill:#7a3e1a;stroke:none;stroke-width:0.11166584;stroke-linecap:round;stroke-linejoin:round;stroke-miterlimit:10"
     d="m 77.083171,61.036631 -1.072166,2.679984 H 78.1549 Z m 0,0"
     id="path36" />
  <path
     inkscape:connector-curvature="0"
     style="fill:#dd4a43;stroke:none;stroke-width:0.11166584;stroke-linecap:round;stroke-linejoin:round;stroke-miterlimit:10"
     d="m 76.011005,63.716615 -0.714487,1.786652 v 19.653189 h 3.573307 V 65.503267 L 78.1549,63.716615 Z m 0,0"
     id="path38" />
  <path
     inkscape:connector-curvature="0"
     style="fill:#8f4b20;stroke:none;stroke-width:0.11166584;stroke-linecap:round;stroke-linejoin:round;stroke-miterlimit:10"
     d="m 37.776794,102.96323 v 5.41972 h 44.66634 V 86.526979 C 68.335721,93.932693 53.319282,99.45885 37.776794,102.96323 Z m 0,0"
     id="path40" />
  <path
     inkscape:connector-curvature="0"
     style="fill:#7a3e1a;stroke:none;stroke-width:0.11166584;stroke-linecap:round;stroke-linejoin:round;stroke-miterlimit:10"
     d="m 37.776794,85.156456 h 1.786652 v 23.226494 h -1.786652 z m 0,0"
     id="path42" />
  <path
     inkscape:connector-curvature="0"
     style="fill:#7a3e1a;stroke:none;stroke-width:0.11166584;stroke-linecap:round;stroke-linejoin:round;stroke-miterlimit:10"
     d="m 80.656477,85.156456 h 1.786657 v 23.226494 h -1.786657 z m 0,0"
     id="path44" />
  <path
     inkscape:connector-curvature="0"
     style="fill:#7a3e1a;stroke:none;stroke-width:0.11166584;stroke-linecap:round;stroke-linejoin:round;stroke-miterlimit:10"
     d="m 37.776794,70.863228 h 1.786652 v 3.573309 h -1.786652 z m 0,0"
     id="path46" />
  <path
     inkscape:connector-curvature="0"
     style="fill:#7a3e1a;stroke:none;stroke-width:0.11166584;stroke-linecap:round;stroke-linejoin:round;stroke-miterlimit:10"
     d="m 80.656477,70.863228 h 1.786657 v 3.573309 h -1.786657 z m 0,0"
     id="path48" />
</svg>
